<svg width="1920" height="511" viewBox="0 0 1920 511" fill="none" xmlns="http://www.w3.org/2000/svg">
<rect width="1920" height="499" fill="url(#paint0_linear_182_39)"/>
<path d="M414.212 155.804C409.02 156.904 404.488 157.168 396.656 157.168V145.728H410.516V142.824H393.092V160.116H396.172C404.488 160.116 409.196 159.852 414.608 158.752L414.212 155.804ZM409.416 176.308C403.564 176.308 399.956 174.548 399.956 171.644C399.956 168.74 403.564 166.98 409.416 166.98C415.224 166.98 418.832 168.74 418.832 171.644C418.832 174.548 415.224 176.308 409.416 176.308ZM409.416 164.076C401.408 164.076 396.392 166.892 396.392 171.644C396.392 176.396 401.408 179.212 409.416 179.212C417.38 179.212 422.396 176.396 422.396 171.644C422.396 166.892 417.38 164.076 409.416 164.076ZM422 150.04V139.788H418.348V163.284H422V153.032H427.808V150.04H422ZM464.193 139.788H460.585V168.74H464.193V139.788ZM455.569 159.456C449.717 157.3 445.713 151.932 445.713 145.992V141.988H442.105V145.992C442.105 152.152 438.145 157.872 432.205 160.16L434.097 163.108C438.717 161.172 442.281 157.344 443.953 152.548C445.713 157.036 449.189 160.6 453.677 162.316L455.569 159.456ZM442.413 175.428V166.056H438.805V178.376H465.381V175.428H442.413ZM485.089 142.692C478.973 142.692 474.529 146.432 474.529 151.976C474.529 157.476 478.973 161.26 485.089 161.26C491.249 161.26 495.649 157.476 495.649 151.976C495.649 146.432 491.249 142.692 485.089 142.692ZM485.089 145.772C489.181 145.772 492.129 148.28 492.129 151.976C492.129 155.628 489.181 158.18 485.089 158.18C481.041 158.18 478.049 155.628 478.049 151.976C478.049 148.28 481.041 145.772 485.089 145.772ZM500.841 139.788V179.344H504.449V139.788H500.841ZM472.989 170.676C480.117 170.676 489.665 170.588 498.553 168.96L498.245 166.276C489.621 167.596 479.721 167.64 472.549 167.64L472.989 170.676ZM546.01 144.628H536.154V139.788H532.546V144.628H522.734V147.532H546.01V144.628ZM528.366 157.036C528.366 154.308 530.786 152.548 534.35 152.548C537.914 152.548 540.378 154.308 540.378 157.036C540.378 159.808 537.914 161.568 534.35 161.568C530.786 161.568 528.366 159.808 528.366 157.036ZM543.81 157.036C543.81 152.636 539.938 149.732 534.35 149.732C528.762 149.732 524.934 152.636 524.934 157.036C524.934 161.48 528.762 164.384 534.35 164.384C539.938 164.384 543.81 161.48 543.81 157.036ZM532.282 167.068H528.674V178.376H554.986V175.428H532.282V167.068ZM553.226 152.812V139.788H549.618V169.4H553.226V155.848H559.034V152.812H553.226ZM568.182 146.652H579.226V166.32H568.182V146.652ZM564.662 169.224H582.746V143.748H564.662V169.224ZM599.95 155.54H593.438V139.832H589.83V179.256H593.438V158.576H599.95V155.54ZM609.671 146.564H624.763V143.528H606.107V169.532H609.275C617.239 169.532 622.387 169.268 628.459 168.168L628.063 165.132C622.255 166.232 617.283 166.452 609.671 166.452V146.564ZM632.243 139.788V179.344H635.851V139.788H632.243ZM646.143 144.012V147.004H660.619C659.783 156.332 654.371 163.9 644.295 168.96L646.275 171.776C659.035 165.396 664.183 155.232 664.183 144.012H646.143ZM680.727 155.804H674.391V139.788H670.783V179.256H674.391V158.796H680.727V155.804ZM426.356 221.74C417.116 220.244 412.144 214.172 412.144 208.408V205.504H405.94V208.408C405.94 214.04 400.924 220.244 391.772 221.74L394.148 226.536C401.232 225.26 406.38 221.432 409.02 216.46C411.66 221.476 416.852 225.26 423.98 226.536L426.356 221.74ZM411.968 234.324V225.26H406.16V234.324H390.892V238.988H427.588V234.324H411.968ZM455.261 221.212C448.881 219.232 446.153 214.48 446.153 209.596V205.46H440.257V209.112C440.257 214.612 437.529 220.024 430.753 222.268L433.789 226.844C438.409 225.216 441.533 222.092 443.293 218.132C445.009 221.564 447.957 224.292 452.225 225.7L455.261 221.212ZM450.025 239.296C444.833 239.296 442.061 238.24 442.061 235.952C442.061 233.708 444.833 232.652 450.025 232.652C455.173 232.652 457.945 233.708 457.945 235.952C457.945 238.24 455.173 239.296 450.025 239.296ZM450.025 228.164C441.577 228.164 436.297 231.068 436.297 235.952C436.297 240.88 441.577 243.784 450.025 243.784C458.429 243.784 463.709 240.88 463.709 235.952C463.709 231.068 458.429 228.164 450.025 228.164ZM463.269 212.676V203.304H457.461V227.24H463.269V217.472H468.637V212.676H463.269ZM502.953 219.232C504.097 215.052 504.097 211.62 504.097 208.408V205.064H476.025V209.64H498.289C498.289 212.324 498.157 215.052 497.233 218.66L502.953 219.232ZM489.929 239.428C484.473 239.428 481.349 238.328 481.349 236.172C481.349 233.972 484.473 232.872 489.929 232.872C495.429 232.872 498.553 233.972 498.553 236.172C498.553 238.328 495.429 239.428 489.929 239.428ZM489.929 228.516C481.217 228.516 475.585 231.42 475.585 236.172C475.585 240.88 481.217 243.784 489.929 243.784C498.685 243.784 504.317 240.88 504.317 236.172C504.317 231.42 498.685 228.516 489.929 228.516ZM491.249 221.388V214.304H485.441V221.388H471.933V225.964H508.409V221.388H491.249ZM545.982 203.304H540.13V232.388H545.982V203.304ZM518.57 216.152C518.57 212.808 520.946 210.872 523.938 210.872C526.974 210.872 529.262 212.808 529.262 216.152C529.262 219.408 526.974 221.388 523.938 221.388C520.946 221.388 518.57 219.408 518.57 216.152ZM534.938 216.152C534.938 210.168 530.142 205.856 523.938 205.856C517.734 205.856 512.894 210.168 512.894 216.152C512.894 222.048 517.734 226.404 523.938 226.404C530.142 226.404 534.938 222.048 534.938 216.152ZM524.818 238.46V229.528H519.01V243.08H546.994V238.46H524.818ZM585.138 212.236H563.138V208.672H584.83V204.052H557.374V216.812H585.138V212.236ZM562.786 236.568H584.962V225.832H556.978V230.188H579.242V232.476H557.022V243.432H586.018V238.988H562.786V236.568ZM552.842 218.968V223.544H589.494V218.968H552.842ZM602.383 230.1C600.183 230.1 598.863 227.064 598.863 220.816C598.863 214.612 600.183 211.576 602.383 211.576C604.627 211.576 605.903 214.612 605.903 220.816C605.903 227.064 604.627 230.1 602.383 230.1ZM614.307 218.176H611.095C610.435 210.608 607.179 206.12 602.383 206.12C597.015 206.12 593.627 211.664 593.627 220.816C593.627 230.012 597.015 235.556 602.383 235.556C607.311 235.556 610.611 230.804 611.139 222.884H614.307V241.98H619.719V203.92H614.307V218.176ZM622.535 203.216V243.74H628.035V203.216H622.535ZM654.563 218.748H650.031C650.999 215.448 651.351 211.884 651.351 208.056H635.467V212.676H645.587C644.883 220.596 641.319 226.448 633.223 231.288L636.523 235.38C642.243 232.036 645.939 228.032 648.227 223.412H654.563V241.98H659.975V204.14H654.563V218.748ZM663.099 203.216V243.74H668.599V203.216H663.099ZM684.197 222.18V226.756H720.805V222.18H684.197ZM702.413 228.956C693.657 228.956 688.377 231.64 688.377 236.392C688.377 241.144 693.657 243.828 702.413 243.828C711.169 243.828 716.493 241.144 716.493 236.392C716.493 231.64 711.169 228.956 702.413 228.956ZM702.413 233.356C707.825 233.356 710.597 234.324 710.597 236.392C710.597 238.504 707.825 239.428 702.413 239.428C697.001 239.428 694.229 238.504 694.229 236.392C694.229 234.324 697.001 233.356 702.413 233.356ZM702.501 204.14C693.613 204.14 687.849 207.176 687.849 212.06C687.849 217.032 693.613 220.024 702.501 220.024C711.433 220.024 717.197 217.032 717.197 212.06C717.197 207.176 711.433 204.14 702.501 204.14ZM702.501 208.584C708.045 208.584 711.213 209.772 711.213 212.06C711.213 214.436 708.045 215.58 702.501 215.58C697.001 215.58 693.833 214.436 693.833 212.06C693.833 209.772 697.001 208.584 702.501 208.584ZM745.353 226.8V230.76H752.965V233.972H758.773V203.26H752.965V226.8H745.353ZM737.565 208.848C740.249 208.848 742.141 209.904 742.141 211.884C742.141 213.864 740.249 214.876 737.565 214.876C734.837 214.876 732.945 213.864 732.945 211.884C732.945 209.904 734.837 208.848 737.565 208.848ZM737.565 219.1C743.461 219.1 747.641 216.196 747.641 211.884C747.641 207.572 743.461 204.624 737.565 204.624C731.625 204.624 727.489 207.572 727.489 211.884C727.489 216.196 731.625 219.1 737.565 219.1ZM735.409 238.46V232.916H740.997V225.26C744.253 224.996 747.509 224.644 750.677 224.116L750.281 219.98C741.745 221.08 731.889 221.168 724.497 221.212L725.245 225.832C728.281 225.832 731.669 225.788 735.233 225.612V231.024H729.601V243.08H759.653V238.46H735.409ZM783.454 208.1C789.35 208.1 792.122 208.936 792.122 210.74C792.122 212.632 789.35 213.424 783.454 213.424C777.602 213.424 774.83 212.632 774.83 210.74C774.83 208.936 777.602 208.1 783.454 208.1ZM783.454 217.648C792.738 217.648 798.15 215.228 798.15 210.74C798.15 206.296 792.738 203.832 783.454 203.832C774.214 203.832 768.802 206.296 768.802 210.74C768.802 215.228 774.214 217.648 783.454 217.648ZM775.138 236.832H797.314V226.404H769.33V230.672H791.594V232.828H769.374V243.476H798.37V239.12H775.138V236.832ZM765.15 219.584V224.116H801.758V219.584H765.15ZM848.375 221.96H825.671V211.312H848.067V206.604H819.863V226.58H848.375V221.96ZM815.595 234.192V238.944H852.291V234.192H815.595ZM880.536 219.408C875.256 220.288 870.548 220.464 863.86 220.508V217.164H876.752V205.108H858.096V209.728H871.032V212.852H858.14V225.172H861.704C869.756 225.172 875.168 225.04 881.196 224.028L880.536 219.408ZM883.968 238.68H868.524V235.424H883.968V238.68ZM883.968 230.98H868.524V227.548H862.76V243.3H889.732V227.548H883.968V230.98ZM883.88 203.26V225.876H889.732V203.26H883.88ZM904.424 207.088H898.66V233.796H902.268C908.428 233.796 915.16 233.356 922.068 231.904L921.452 227.064C915.512 228.252 909.748 228.692 904.424 228.824V207.088ZM924.576 203.216V243.74H930.384V203.216H924.576ZM944.373 211.708H957.485V207H938.609V234.148H942.041C949.081 234.148 954.625 233.928 960.741 232.828L960.169 228.032C954.933 228.912 950.137 229.22 944.373 229.308V211.708ZM974.645 218.22H968.749V203.26H962.941V243.872H968.749V223.016H974.645V218.22ZM982.737 240.616C985.069 240.616 986.785 238.768 986.785 236.392C986.785 233.972 985.069 232.168 982.737 232.168C980.449 232.168 978.733 233.972 978.733 236.392C978.733 238.768 980.449 240.616 982.737 240.616Z" fill="#F1F1F1"/>
<rect x="1140" y="66" width="584" height="445" rx="22" fill="white"/>
<g filter="url(#filter0_d_182_39)">
<rect x="1202" y="190" width="332" height="50" rx="10" fill="white"/>
</g>
<path d="M1222.63 208.91H1227.65V217.85H1222.63V208.91ZM1221.03 219.17H1229.25V207.59H1221.03V219.17ZM1237.07 212.95H1234.11V205.81H1232.47V223.73H1234.11V214.33H1237.07V212.95ZM1241.05 213.89H1247.51V207.45H1239.39V208.79H1245.89V212.55H1239.45V219.41H1240.87C1244.29 219.41 1246.69 219.27 1249.49 218.77L1249.31 217.41C1246.63 217.93 1244.31 218.05 1241.05 218.05V213.89ZM1255.47 212.91H1252.53V205.77H1250.89V223.75H1252.53V214.29H1255.47V212.91ZM1267.28 213.77C1264.96 214.19 1263 214.29 1259.56 214.29V211.93H1265.8V210.63H1259.56V208.37H1266.12V207.05H1257.92V215.61H1259.28C1262.96 215.61 1265.02 215.53 1267.46 215.09L1267.28 213.77ZM1265.34 222.45C1262.68 222.45 1261.06 221.73 1261.06 220.49C1261.06 219.27 1262.68 218.55 1265.34 218.55C1268 218.55 1269.62 219.27 1269.62 220.49C1269.62 221.73 1268 222.45 1265.34 222.45ZM1265.34 217.27C1261.68 217.27 1259.44 218.45 1259.44 220.49C1259.44 222.55 1261.68 223.71 1265.34 223.71C1269 223.71 1271.24 222.55 1271.24 220.49C1271.24 218.45 1269 217.27 1265.34 217.27ZM1271.02 210.43V205.81H1269.38V216.83H1271.02V211.79H1273.68V210.43H1271.02ZM1283.08 207.79H1281.44V219.43H1282.84C1285.68 219.43 1288.2 219.25 1291.04 218.71L1290.82 217.31C1288.18 217.85 1285.74 218.03 1283.08 218.05V207.79ZM1293.6 205.79V211.71H1288.1V213.07H1293.6V223.77H1295.24V205.79H1293.6ZM1311.42 212.47H1302.52V208.11H1311.42V212.47ZM1313.04 206.79H1300.92V213.77H1313.04V206.79ZM1315.12 216.21H1298.84V217.53H1306.12V223.71H1307.76V217.53H1315.12V216.21ZM1329.42 213.79H1324.56V208.47H1329.42V213.79ZM1331.04 207.17H1322.96V215.11H1331.04V207.17ZM1331.54 216.83H1329.92V217.39C1329.92 219.93 1327.12 221.83 1323.92 222.37L1324.58 223.65C1327.24 223.15 1329.66 221.81 1330.74 219.77C1331.8 221.81 1334.2 223.15 1336.86 223.65L1337.52 222.37C1334.32 221.83 1331.54 219.93 1331.54 217.39V216.83ZM1336.14 210.69V205.79H1334.5V217.71H1336.14V212.05H1338.78V210.69H1336.14ZM1355.34 205.81H1353.7V216.05H1355.34V205.81ZM1345.7 208.21C1347.48 208.21 1348.8 209.39 1348.8 211.03C1348.8 212.69 1347.48 213.85 1345.7 213.85C1343.92 213.85 1342.64 212.69 1342.64 211.03C1342.64 209.39 1343.92 208.21 1345.7 208.21ZM1345.7 215.21C1348.42 215.21 1350.4 213.51 1350.4 211.03C1350.4 208.55 1348.42 206.85 1345.7 206.85C1343 206.85 1341.04 208.55 1341.04 211.03C1341.04 213.51 1343 215.21 1345.7 215.21ZM1353.34 216.83H1351.74V217.79C1351.74 219.19 1350.88 220.99 1349.16 222.05C1347.5 221.07 1346.68 219.37 1346.68 217.79V216.83H1345.1V217.79C1345.1 219.51 1343.76 221.45 1341.5 222.25L1342.32 223.49C1344 222.85 1345.22 221.61 1345.86 220.17C1346.4 221.67 1347.48 222.97 1349.2 223.65C1350.86 222.93 1351.96 221.57 1352.52 220.11C1353.12 221.61 1354.36 222.85 1356.12 223.49L1356.94 222.25C1354.66 221.49 1353.34 219.65 1353.34 217.79V216.83ZM1363.82 218.23C1362.1 218.23 1360.9 216.35 1360.9 213.43C1360.9 210.53 1362.1 208.65 1363.82 208.65C1365.52 208.65 1366.72 210.53 1366.72 213.43C1366.72 216.35 1365.52 218.23 1363.82 218.23ZM1372.16 205.79V212.63H1368.26C1368 209.27 1366.24 207.17 1363.82 207.17C1361.2 207.17 1359.34 209.61 1359.34 213.43C1359.34 217.25 1361.2 219.69 1363.82 219.69C1366.32 219.69 1368.1 217.49 1368.26 213.97H1372.16V223.77H1373.8V205.79H1372.16ZM1383.04 215.85C1383.78 216.03 1384.64 216.13 1385.52 216.13C1386.42 216.13 1387.28 216.03 1388.04 215.85V220.07H1383.04V215.85ZM1385.52 208.21C1388.4 208.21 1390.48 209.53 1390.48 211.53C1390.48 213.53 1388.4 214.85 1385.52 214.85C1382.64 214.85 1380.58 213.53 1380.58 211.53C1380.58 209.53 1382.64 208.21 1385.52 208.21ZM1389.68 220.07V215.21C1391.16 214.43 1392.04 213.15 1392.04 211.53C1392.04 208.73 1389.34 206.93 1385.52 206.93C1381.72 206.93 1379 208.73 1379 211.53C1379 213.15 1379.9 214.45 1381.4 215.23V220.07H1377.4V221.43H1393.7V220.07H1389.68ZM1398.14 218.236H1396.51L1396.39 208.031H1398.28L1398.14 218.236ZM1396.32 221.342C1396.32 221.049 1396.4 220.805 1396.58 220.609C1396.76 220.408 1397.03 220.307 1397.38 220.307C1397.73 220.307 1398 220.408 1398.18 220.609C1398.36 220.805 1398.46 221.049 1398.46 221.342C1398.46 221.635 1398.36 221.879 1398.18 222.074C1398 222.263 1397.73 222.357 1397.38 222.357C1397.03 222.357 1396.76 222.263 1396.58 222.074C1396.4 221.879 1396.32 221.635 1396.32 221.342ZM1403.3 218.236H1401.67L1401.54 208.031H1403.44L1403.3 218.236ZM1401.47 221.342C1401.47 221.049 1401.56 220.805 1401.74 220.609C1401.92 220.408 1402.19 220.307 1402.54 220.307C1402.89 220.307 1403.16 220.408 1403.34 220.609C1403.52 220.805 1403.61 221.049 1403.61 221.342C1403.61 221.635 1403.52 221.879 1403.34 222.074C1403.16 222.263 1402.89 222.357 1402.54 222.357C1402.19 222.357 1401.92 222.263 1401.74 222.074C1401.56 221.879 1401.47 221.635 1401.47 221.342Z" fill="black"/>
<path d="M1208.22 121.42C1208.22 119.36 1210.32 118.02 1213.18 118.02C1216.04 118.02 1218.12 119.36 1218.12 121.42C1218.12 123.48 1216.04 124.82 1213.18 124.82C1210.32 124.82 1208.22 123.48 1208.22 121.42ZM1214 129.82V126.08C1217.34 125.84 1219.68 124.06 1219.68 121.42C1219.68 118.56 1216.96 116.72 1213.18 116.72C1209.38 116.72 1206.64 118.56 1206.64 121.42C1206.64 124.06 1209 125.84 1212.34 126.08V129.82H1205.04V131.18H1221.34V129.82H1214ZM1237.82 119.82H1227.26V115.8H1225.64V121.14H1237.82V119.82ZM1227.14 130.06H1237.66V125.84H1225.46V127.12H1236.02V128.84H1225.5V133.24H1238.26V131.96H1227.14V130.06ZM1223.44 122.9V124.24H1239.72V122.9H1223.44ZM1247.68 116.86C1244.9 116.86 1242.88 118.56 1242.88 121.08C1242.88 123.58 1244.9 125.3 1247.68 125.3C1250.48 125.3 1252.48 123.58 1252.48 121.08C1252.48 118.56 1250.48 116.86 1247.68 116.86ZM1247.68 118.26C1249.54 118.26 1250.88 119.4 1250.88 121.08C1250.88 122.74 1249.54 123.9 1247.68 123.9C1245.84 123.9 1244.48 122.74 1244.48 121.08C1244.48 119.4 1245.84 118.26 1247.68 118.26ZM1254.84 115.54V133.52H1256.48V115.54H1254.84ZM1242.18 129.58C1245.42 129.58 1249.76 129.54 1253.8 128.8L1253.66 127.58C1249.74 128.18 1245.24 128.2 1241.98 128.2L1242.18 129.58ZM1271.16 127.36H1267.4V118.92H1271.16V127.36ZM1275.34 122.3H1272.68V117.62H1265.86V128.66H1272.68V123.66H1275.34V132.58H1276.9V115.94H1275.34V122.3ZM1278.9 115.54V133.46H1280.46V115.54H1278.9ZM1297.91 121.6H1287.31V116.46H1285.67V122.92H1297.91V121.6ZM1299.83 125.5H1283.61V126.86H1287.81V133.48H1289.43V126.86H1293.99V133.48H1295.63V126.86H1299.83V125.5ZM1306.07 128.02C1304.63 128.02 1303.73 126.2 1303.73 123.26C1303.73 120.38 1304.63 118.56 1306.07 118.56C1307.47 118.56 1308.39 120.38 1308.39 123.26C1308.39 126.2 1307.47 128.02 1306.07 128.02ZM1312.13 122.52H1309.87C1309.67 119.14 1308.23 117.04 1306.07 117.04C1303.73 117.04 1302.23 119.44 1302.23 123.26C1302.23 127.14 1303.73 129.54 1306.07 129.54C1308.27 129.54 1309.73 127.38 1309.87 123.86H1312.13V132.6H1313.69V115.94H1312.13V122.52ZM1315.69 115.54V133.48H1317.25V115.54H1315.69ZM1327.63 119.06H1332.69V117.72H1326.01V129.06H1327.19C1329.87 129.06 1331.69 128.98 1333.83 128.52L1333.69 127.16C1331.73 127.58 1330.03 127.68 1327.63 127.7V119.06ZM1339.03 115.54V122.74H1336.49V115.94H1334.95V132.58H1336.49V124.08H1339.03V133.48H1340.61V115.54H1339.03ZM1354.41 117.74H1349.93V115.54H1348.29V117.74H1343.83V119.06H1354.41V117.74ZM1346.39 123.38C1346.39 122.14 1347.49 121.34 1349.11 121.34C1350.73 121.34 1351.85 122.14 1351.85 123.38C1351.85 124.64 1350.73 125.44 1349.11 125.44C1347.49 125.44 1346.39 124.64 1346.39 123.38ZM1353.41 123.38C1353.41 121.38 1351.65 120.06 1349.11 120.06C1346.57 120.06 1344.83 121.38 1344.83 123.38C1344.83 125.4 1346.57 126.72 1349.11 126.72C1351.65 126.72 1353.41 125.4 1353.41 123.38ZM1348.17 127.94H1346.53V133.08H1358.49V131.74H1348.17V127.94ZM1357.69 121.46V115.54H1356.05V129H1357.69V122.84H1360.33V121.46H1357.69ZM1369.81 123.6H1376.43V117.2H1368.11V118.54H1374.77V122.28H1368.17V129.16H1369.65C1372.73 129.16 1375.45 129.04 1378.69 128.5L1378.53 127.16C1375.39 127.66 1372.75 127.8 1369.81 127.8V123.6ZM1380.21 115.52V133.5H1381.85V115.52H1380.21ZM1398.09 122.56H1389.19V119.96H1398.09V122.56ZM1399.73 116.24H1398.09V118.64H1389.19V116.24H1387.57V123.88H1399.73V116.24ZM1401.79 126.02H1385.51V127.36H1389.61V133.48H1391.25V127.36H1396.03V133.48H1397.67V127.36H1401.79V126.02ZM1416.49 118.68H1406.01V122.52H1418.43V121.34H1407.63V119.8H1418.11V116.06H1405.97V117.22H1416.49V118.68ZM1407.53 130.4H1418.17V126.58H1405.87V127.76H1416.55V129.26H1405.91V133.24H1418.73V132.06H1407.53V130.4ZM1403.93 123.88V125.12H1420.19V123.88H1403.93ZM1437.75 122.18C1434.89 122.74 1432.33 122.92 1429.79 122.94V116.44H1428.17V124.32H1429.57C1432.25 124.32 1434.93 124.12 1437.95 123.52L1437.75 122.18ZM1431.51 127.98H1439.61V131.9H1431.51V127.98ZM1429.91 133.22H1441.21V126.66H1429.91V133.22ZM1443.87 119.66H1441.21V115.54H1439.57V125.68H1441.21V121.02H1443.87V119.66ZM1458.81 115.52V120.46H1454.43C1454.61 119.5 1454.71 118.5 1454.71 117.48H1446.47V118.8H1453.07C1452.75 123.02 1450.41 126.46 1445.69 128.78L1446.55 130.1C1450.75 128.02 1453.09 125.12 1454.11 121.78H1458.81V125.26H1453.85V126.6H1458.81V133.46H1460.45V115.52H1458.81ZM1465.68 124.26C1468.46 123.78 1471.1 122.28 1472.2 120.16C1473.28 122.28 1475.94 123.78 1478.72 124.26L1479.36 122.96C1476.2 122.5 1473.1 120.44 1473.1 118.08V117.98H1478.72V116.66H1465.62V117.98H1471.28V118.08C1471.28 120.44 1468.18 122.5 1465.06 122.96L1465.68 124.26ZM1480.3 125.76H1464.1V127.1H1471.34V133.48H1472.98V127.1H1480.32L1480.3 125.76ZM1487.8 117.24H1486.22V120.66C1486.22 123.74 1484.74 126.96 1482.28 128.4L1483.3 129.62C1485.08 128.52 1486.38 126.5 1487.02 124.12C1487.66 126.3 1488.86 128.2 1490.56 129.24L1491.5 127.96C1489.14 126.52 1487.8 123.48 1487.8 120.6V117.24ZM1492.52 121.98H1489.56V123.34H1492.52V132.6H1494.06V115.94H1492.52V121.98ZM1496.16 115.54V133.48H1497.72V115.54H1496.16ZM1506.5 125.6C1507.24 125.78 1508.1 125.88 1508.98 125.88C1509.88 125.88 1510.74 125.78 1511.5 125.6V129.82H1506.5V125.6ZM1508.98 117.96C1511.86 117.96 1513.94 119.28 1513.94 121.28C1513.94 123.28 1511.86 124.6 1508.98 124.6C1506.1 124.6 1504.04 123.28 1504.04 121.28C1504.04 119.28 1506.1 117.96 1508.98 117.96ZM1513.14 129.82V124.96C1514.62 124.18 1515.5 122.9 1515.5 121.28C1515.5 118.48 1512.8 116.68 1508.98 116.68C1505.18 116.68 1502.46 118.48 1502.46 121.28C1502.46 122.9 1503.36 124.2 1504.86 124.98V129.82H1500.86V131.18H1517.16V129.82H1513.14Z" fill="black"/>
<path d="M1505.9 212.7C1506.14 212.7 1506.37 212.795 1506.54 212.964C1506.71 213.132 1506.8 213.361 1506.8 213.6V215.4C1506.8 217.31 1507.56 219.141 1508.91 220.491C1510.26 221.841 1512.09 222.6 1514 222.6C1515.91 222.6 1517.74 221.841 1519.09 220.491C1520.44 219.141 1521.2 217.31 1521.2 215.4V213.6C1521.2 213.361 1521.29 213.132 1521.46 212.964C1521.63 212.795 1521.86 212.7 1522.1 212.7C1522.34 212.7 1522.57 212.795 1522.74 212.964C1522.91 213.132 1523 213.361 1523 213.6V215.4C1523 217.631 1522.17 219.783 1520.67 221.437C1519.18 223.092 1517.12 224.132 1514.9 224.355V228H1520.3C1520.54 228 1520.77 228.095 1520.94 228.264C1521.11 228.432 1521.2 228.661 1521.2 228.9C1521.2 229.139 1521.11 229.368 1520.94 229.536C1520.77 229.705 1520.54 229.8 1520.3 229.8H1507.7C1507.46 229.8 1507.23 229.705 1507.06 229.536C1506.89 229.368 1506.8 229.139 1506.8 228.9C1506.8 228.661 1506.89 228.432 1507.06 228.264C1507.23 228.095 1507.46 228 1507.7 228H1513.1V224.355C1510.88 224.132 1508.82 223.092 1507.33 221.437C1505.83 219.783 1505 217.631 1505 215.4V213.6C1505 213.361 1505.09 213.132 1505.26 212.964C1505.43 212.795 1505.66 212.7 1505.9 212.7Z" fill="black"/>
<path d="M1517.6 215.4C1517.6 216.355 1517.22 217.27 1516.55 217.946C1515.87 218.621 1514.95 219 1514 219C1513.05 219 1512.13 218.621 1511.45 217.946C1510.78 217.27 1510.4 216.355 1510.4 215.4V206.4C1510.4 205.445 1510.78 204.53 1511.45 203.854C1512.13 203.179 1513.05 202.8 1514 202.8C1514.95 202.8 1515.87 203.179 1516.55 203.854C1517.22 204.53 1517.6 205.445 1517.6 206.4V215.4ZM1514 201C1512.57 201 1511.19 201.569 1510.18 202.582C1509.17 203.594 1508.6 204.968 1508.6 206.4V215.4C1508.6 216.832 1509.17 218.206 1510.18 219.218C1511.19 220.231 1512.57 220.8 1514 220.8C1515.43 220.8 1516.81 220.231 1517.82 219.218C1518.83 218.206 1519.4 216.832 1519.4 215.4V206.4C1519.4 204.968 1518.83 203.594 1517.82 202.582C1516.81 201.569 1515.43 201 1514 201V201Z" fill="black"/>
<path d="M1505.9 212.7C1506.14 212.7 1506.37 212.795 1506.54 212.964C1506.71 213.132 1506.8 213.361 1506.8 213.6V215.4C1506.8 217.31 1507.56 219.141 1508.91 220.491C1510.26 221.841 1512.09 222.6 1514 222.6C1515.91 222.6 1517.74 221.841 1519.09 220.491C1520.44 219.141 1521.2 217.31 1521.2 215.4V213.6C1521.2 213.361 1521.29 213.132 1521.46 212.964C1521.63 212.795 1521.86 212.7 1522.1 212.7C1522.34 212.7 1522.57 212.795 1522.74 212.964C1522.91 213.132 1523 213.361 1523 213.6V215.4C1523 217.631 1522.17 219.783 1520.67 221.437C1519.18 223.092 1517.12 224.132 1514.9 224.355V228H1520.3C1520.54 228 1520.77 228.095 1520.94 228.264C1521.11 228.432 1521.2 228.661 1521.2 228.9C1521.2 229.139 1521.11 229.368 1520.94 229.536C1520.77 229.705 1520.54 229.8 1520.3 229.8H1507.7C1507.46 229.8 1507.23 229.705 1507.06 229.536C1506.89 229.368 1506.8 229.139 1506.8 228.9C1506.8 228.661 1506.89 228.432 1507.06 228.264C1507.23 228.095 1507.46 228 1507.7 228H1513.1V224.355C1510.88 224.132 1508.82 223.092 1507.33 221.437C1505.83 219.783 1505 217.631 1505 215.4V213.6C1505 213.361 1505.09 213.132 1505.26 212.964C1505.43 212.795 1505.66 212.7 1505.9 212.7Z" fill="#FF5252"/>
<path d="M1517.6 215.4C1517.6 216.355 1517.22 217.27 1516.55 217.946C1515.87 218.621 1514.95 219 1514 219C1513.05 219 1512.13 218.621 1511.45 217.946C1510.78 217.27 1510.4 216.355 1510.4 215.4V206.4C1510.4 205.445 1510.78 204.53 1511.45 203.854C1512.13 203.179 1513.05 202.8 1514 202.8C1514.95 202.8 1515.87 203.179 1516.55 203.854C1517.22 204.53 1517.6 205.445 1517.6 206.4V215.4ZM1514 201C1512.57 201 1511.19 201.569 1510.18 202.582C1509.17 203.594 1508.6 204.968 1508.6 206.4V215.4C1508.6 216.832 1509.17 218.206 1510.18 219.218C1511.19 220.231 1512.57 220.8 1514 220.8C1515.43 220.8 1516.81 220.231 1517.82 219.218C1518.83 218.206 1519.4 216.832 1519.4 215.4V206.4C1519.4 204.968 1518.83 203.594 1517.82 202.582C1516.81 201.569 1515.43 201 1514 201V201Z" fill="#FF5252"/>
<g filter="url(#filter1_d_182_39)">
<rect x="1327" y="402" width="332" height="50" rx="10" fill="white"/>
</g>
<path d="M1345.84 418.68V420.02H1352.36C1352.04 423.06 1349.42 425.42 1345.04 426.6L1345.68 427.9C1350.96 426.46 1354.12 423.24 1354.12 418.68H1345.84ZM1349.3 429.88H1357.36V433.9H1349.3V429.88ZM1347.68 435.22H1358.98V428.56H1347.68V435.22ZM1361.64 421.92H1358.98V417.52H1357.34V427.72H1358.98V423.28H1361.64V421.92ZM1369.48 419.1H1367.86V422.32C1367.86 425.58 1365.82 429.02 1363.24 430.34L1364.22 431.66C1366.24 430.58 1367.9 428.34 1368.68 425.72C1369.5 428.18 1371.12 430.28 1373.02 431.3L1374.04 430C1371.52 428.74 1369.48 425.48 1369.48 422.32V419.1ZM1380.22 424.82H1377.26V417.56H1375.62V435.48H1377.26V426.18H1380.22V424.82ZM1392.5 419.38H1388.02V417.36H1386.38V419.38H1381.92V420.7H1392.5V419.38ZM1384.48 424.68C1384.48 423.52 1385.56 422.78 1387.2 422.78C1388.84 422.78 1389.94 423.52 1389.94 424.68C1389.94 425.86 1388.84 426.58 1387.2 426.58C1385.56 426.58 1384.48 425.86 1384.48 424.68ZM1391.5 424.68C1391.5 422.78 1389.76 421.56 1387.2 421.56C1384.64 421.56 1382.92 422.78 1382.92 424.68C1382.92 426.6 1384.64 427.82 1387.2 427.82C1389.76 427.82 1391.5 426.6 1391.5 424.68ZM1394.16 433.92H1386.12V431.94H1394.16V433.92ZM1394.16 430.66H1386.12V428.76H1384.5V435.24H1395.78V428.76H1394.16V430.66ZM1398.44 422.1H1395.78V417.54H1394.14V427.96H1395.78V423.48H1398.44V422.1ZM1403.02 419.28H1401.38V430.84H1402.86C1405.72 430.84 1408.54 430.64 1411.66 430L1411.48 428.6C1408.5 429.2 1405.72 429.44 1403.02 429.44V419.28ZM1413.32 417.54V435.46H1414.96V417.54H1413.32ZM1421.05 420.62H1427.75V419.26H1419.41V431.04H1420.83C1424.21 431.04 1426.57 430.92 1429.31 430.4L1429.13 429.04C1426.53 429.5 1424.23 429.64 1421.05 429.64V420.62ZM1435.41 424.62H1432.45V417.54H1430.81V435.52H1432.45V425.98H1435.41V424.62ZM1437.4 433.053C1437.4 432.74 1437.49 432.48 1437.67 432.271C1437.86 432.063 1438.14 431.959 1438.51 431.959C1438.88 431.959 1439.16 432.063 1439.35 432.271C1439.55 432.48 1439.64 432.74 1439.64 433.053C1439.64 433.352 1439.55 433.603 1439.35 433.805C1439.16 434.007 1438.88 434.107 1438.51 434.107C1438.14 434.107 1437.86 434.007 1437.67 433.805C1437.49 433.603 1437.4 433.352 1437.4 433.053ZM1448.69 423.96C1451.71 423.68 1454.45 422.5 1455.41 420.66C1456.39 422.5 1459.11 423.66 1462.13 423.96L1462.65 422.7C1459.53 422.46 1456.69 421.16 1456.49 419.38H1462.03V418.1H1448.79V419.38H1454.33C1454.13 421.16 1451.27 422.46 1448.15 422.7L1448.69 423.96ZM1455.39 434.46C1453.01 434.46 1451.69 434.04 1451.69 433.24C1451.69 432.4 1453.01 432 1455.39 432C1457.77 432 1459.11 432.4 1459.11 433.24C1459.11 434.04 1457.77 434.46 1455.39 434.46ZM1455.39 430.84C1451.93 430.84 1450.01 431.66 1450.01 433.24C1450.01 434.78 1451.93 435.58 1455.39 435.58C1458.85 435.58 1460.79 434.78 1460.79 433.24C1460.79 431.66 1458.85 430.84 1455.39 430.84ZM1456.23 427.02H1454.59V428.7H1448.79V429.96H1462.01V428.7H1456.23V427.02ZM1456.21 424.98V422.84H1454.57V424.98H1447.29V426.3H1463.53V424.98H1456.21ZM1473.79 419.48C1476.61 419.48 1478.41 420.32 1478.41 421.74C1478.41 423.16 1476.61 423.98 1473.79 423.98C1470.97 423.98 1469.17 423.16 1469.17 421.74C1469.17 420.32 1470.97 419.48 1473.79 419.48ZM1473.79 425.3C1477.63 425.3 1480.09 423.98 1480.09 421.74C1480.09 419.5 1477.63 418.16 1473.79 418.16C1469.95 418.16 1467.49 419.5 1467.49 421.74C1467.49 423.98 1469.95 425.3 1473.79 425.3ZM1469.41 429.88H1467.77V435.08H1480.11V433.74H1469.41V429.88ZM1465.67 426.98V428.3H1481.89V426.98H1465.67ZM1494.3 430.12C1492.68 430.12 1491.5 428.96 1491.5 427.36C1491.5 425.74 1492.68 424.58 1494.3 424.58C1495.94 424.58 1497.12 425.74 1497.12 427.36C1497.12 428.96 1495.94 430.12 1494.3 430.12ZM1494.3 423.22C1491.78 423.22 1489.96 424.94 1489.96 427.36C1489.96 429.8 1491.78 431.48 1494.3 431.48C1496.86 431.48 1498.68 429.8 1498.68 427.36C1498.68 424.94 1496.86 423.22 1494.3 423.22ZM1495.1 417.76H1493.46V420.42H1488.94V421.74H1499.52V420.42H1495.1V417.76ZM1505.8 424.92H1502.86V417.56H1501.22V435.48H1502.86V426.3H1505.8V424.92ZM1520.08 421.68H1509.42V426.58H1522.14V425.24H1511.06V422.94H1521.74V418.26H1509.36V419.56H1520.08V421.68ZM1523.7 428.42H1507.42V429.76H1514.72V435.5H1516.36V429.76H1523.7V428.42ZM1537.54 426.62H1541.4V425.28H1533.86V420.58H1541.32V419.22H1532.24V426.62H1535.9V430.18C1534.16 430.24 1532.46 430.24 1530.92 430.24L1531.12 431.62C1534.52 431.62 1538.82 431.54 1542.74 430.94L1542.6 429.74C1541 429.94 1539.26 430.04 1537.54 430.12V426.62ZM1543.78 417.52V435.52H1545.42V417.52H1543.78ZM1554.52 419.24H1552.94V422.66C1552.94 425.74 1551.46 428.96 1549 430.4L1550.02 431.62C1551.8 430.52 1553.1 428.5 1553.74 426.12C1554.38 428.3 1555.58 430.2 1557.28 431.24L1558.22 429.96C1555.86 428.52 1554.52 425.48 1554.52 422.6V419.24ZM1559.24 423.98H1556.28V425.34H1559.24V434.6H1560.78V417.94H1559.24V423.98ZM1562.88 417.54V435.48H1564.44V417.54H1562.88ZM1573.22 427.6C1573.96 427.78 1574.82 427.88 1575.7 427.88C1576.6 427.88 1577.46 427.78 1578.22 427.6V431.82H1573.22V427.6ZM1575.7 419.96C1578.58 419.96 1580.66 421.28 1580.66 423.28C1580.66 425.28 1578.58 426.6 1575.7 426.6C1572.82 426.6 1570.76 425.28 1570.76 423.28C1570.76 421.28 1572.82 419.96 1575.7 419.96ZM1579.86 431.82V426.96C1581.34 426.18 1582.22 424.9 1582.22 423.28C1582.22 420.48 1579.52 418.68 1575.7 418.68C1571.9 418.68 1569.18 420.48 1569.18 423.28C1569.18 424.9 1570.08 426.2 1571.58 426.98V431.82H1567.58V433.18H1583.88V431.82H1579.86ZM1597.27 426.412C1597.27 427.441 1596.97 428.31 1596.35 429.02C1595.75 429.723 1595 430.074 1594.11 430.074C1593.64 430.074 1593.2 429.99 1592.78 429.82C1592.36 429.645 1591.88 429.316 1591.32 428.834C1590.78 428.352 1590.38 428.053 1590.14 427.936C1589.9 427.818 1589.64 427.76 1589.37 427.76C1588.86 427.76 1588.47 427.936 1588.2 428.287C1587.93 428.632 1587.79 429.111 1587.79 429.723L1586.22 429.742C1586.22 428.701 1586.52 427.844 1587.12 427.174C1587.71 426.503 1588.47 426.168 1589.37 426.168C1589.87 426.168 1590.34 426.272 1590.8 426.48C1591.25 426.689 1591.77 427.057 1592.34 427.584C1592.91 428.105 1593.41 428.398 1593.82 428.463L1594.11 428.482C1594.6 428.482 1595 428.294 1595.31 427.916C1595.62 427.538 1595.78 427.04 1595.78 426.422L1597.27 426.412Z" fill="black"/>
<path d="M1630.9 424.7C1631.14 424.7 1631.37 424.795 1631.54 424.964C1631.71 425.132 1631.8 425.361 1631.8 425.6V427.4C1631.8 429.31 1632.56 431.141 1633.91 432.491C1635.26 433.841 1637.09 434.6 1639 434.6C1640.91 434.6 1642.74 433.841 1644.09 432.491C1645.44 431.141 1646.2 429.31 1646.2 427.4V425.6C1646.2 425.361 1646.29 425.132 1646.46 424.964C1646.63 424.795 1646.86 424.7 1647.1 424.7C1647.34 424.7 1647.57 424.795 1647.74 424.964C1647.91 425.132 1648 425.361 1648 425.6V427.4C1648 429.631 1647.17 431.783 1645.67 433.437C1644.18 435.092 1642.12 436.132 1639.9 436.355V440H1645.3C1645.54 440 1645.77 440.095 1645.94 440.264C1646.11 440.432 1646.2 440.661 1646.2 440.9C1646.2 441.139 1646.11 441.368 1645.94 441.536C1645.77 441.705 1645.54 441.8 1645.3 441.8H1632.7C1632.46 441.8 1632.23 441.705 1632.06 441.536C1631.89 441.368 1631.8 441.139 1631.8 440.9C1631.8 440.661 1631.89 440.432 1632.06 440.264C1632.23 440.095 1632.46 440 1632.7 440H1638.1V436.355C1635.88 436.132 1633.82 435.092 1632.33 433.437C1630.83 431.783 1630 429.631 1630 427.4V425.6C1630 425.361 1630.09 425.132 1630.26 424.964C1630.43 424.795 1630.66 424.7 1630.9 424.7Z" fill="black"/>
<path d="M1642.6 427.4C1642.6 428.355 1642.22 429.27 1641.55 429.946C1640.87 430.621 1639.95 431 1639 431C1638.05 431 1637.13 430.621 1636.45 429.946C1635.78 429.27 1635.4 428.355 1635.4 427.4V418.4C1635.4 417.445 1635.78 416.53 1636.45 415.854C1637.13 415.179 1638.05 414.8 1639 414.8C1639.95 414.8 1640.87 415.179 1641.55 415.854C1642.22 416.53 1642.6 417.445 1642.6 418.4V427.4ZM1639 413C1637.57 413 1636.19 413.569 1635.18 414.582C1634.17 415.594 1633.6 416.968 1633.6 418.4V427.4C1633.6 428.832 1634.17 430.206 1635.18 431.218C1636.19 432.231 1637.57 432.8 1639 432.8C1640.43 432.8 1641.81 432.231 1642.82 431.218C1643.83 430.206 1644.4 428.832 1644.4 427.4V418.4C1644.4 416.968 1643.83 415.594 1642.82 414.582C1641.81 413.569 1640.43 413 1639 413V413Z" fill="black"/>
<path d="M1630.9 424.7C1631.14 424.7 1631.37 424.795 1631.54 424.964C1631.71 425.132 1631.8 425.361 1631.8 425.6V427.4C1631.8 429.31 1632.56 431.141 1633.91 432.491C1635.26 433.841 1637.09 434.6 1639 434.6C1640.91 434.6 1642.74 433.841 1644.09 432.491C1645.44 431.141 1646.2 429.31 1646.2 427.4V425.6C1646.2 425.361 1646.29 425.132 1646.46 424.964C1646.63 424.795 1646.86 424.7 1647.1 424.7C1647.34 424.7 1647.57 424.795 1647.74 424.964C1647.91 425.132 1648 425.361 1648 425.6V427.4C1648 429.631 1647.17 431.783 1645.67 433.437C1644.18 435.092 1642.12 436.132 1639.9 436.355V440H1645.3C1645.54 440 1645.77 440.095 1645.94 440.264C1646.11 440.432 1646.2 440.661 1646.2 440.9C1646.2 441.139 1646.11 441.368 1645.94 441.536C1645.77 441.705 1645.54 441.8 1645.3 441.8H1632.7C1632.46 441.8 1632.23 441.705 1632.06 441.536C1631.89 441.368 1631.8 441.139 1631.8 440.9C1631.8 440.661 1631.89 440.432 1632.06 440.264C1632.23 440.095 1632.46 440 1632.7 440H1638.1V436.355C1635.88 436.132 1633.82 435.092 1632.33 433.437C1630.83 431.783 1630 429.631 1630 427.4V425.6C1630 425.361 1630.09 425.132 1630.26 424.964C1630.43 424.795 1630.66 424.7 1630.9 424.7Z" fill="#FF5252"/>
<path d="M1642.6 427.4C1642.6 428.355 1642.22 429.27 1641.55 429.946C1640.87 430.621 1639.95 431 1639 431C1638.05 431 1637.13 430.621 1636.45 429.946C1635.78 429.27 1635.4 428.355 1635.4 427.4V418.4C1635.4 417.445 1635.78 416.53 1636.45 415.854C1637.13 415.179 1638.05 414.8 1639 414.8C1639.95 414.8 1640.87 415.179 1641.55 415.854C1642.22 416.53 1642.6 417.445 1642.6 418.4V427.4ZM1639 413C1637.57 413 1636.19 413.569 1635.18 414.582C1634.17 415.594 1633.6 416.968 1633.6 418.4V427.4C1633.6 428.832 1634.17 430.206 1635.18 431.218C1636.19 432.231 1637.57 432.8 1639 432.8C1640.43 432.8 1641.81 432.231 1642.82 431.218C1643.83 430.206 1644.4 428.832 1644.4 427.4V418.4C1644.4 416.968 1643.83 415.594 1642.82 414.582C1641.81 413.569 1640.43 413 1639 413V413Z" fill="#FF5252"/>
<g filter="url(#filter2_d_182_39)">
<rect x="1202" y="267" width="399" height="95" rx="10" fill="white"/>
</g>
<path d="M1226.7 285.452H1222.22V283.272H1220.58V285.452H1216.12V286.772H1226.7V285.452ZM1218.68 290.832C1218.68 289.672 1219.76 288.912 1221.4 288.912C1223.04 288.912 1224.14 289.672 1224.14 290.832C1224.14 292.012 1223.04 292.772 1221.4 292.772C1219.76 292.772 1218.68 292.012 1218.68 290.832ZM1225.7 290.832C1225.7 288.912 1223.96 287.672 1221.4 287.672C1218.84 287.672 1217.12 288.912 1217.12 290.832C1217.12 292.772 1218.84 294.012 1221.4 294.012C1223.96 294.012 1225.7 292.772 1225.7 290.832ZM1224.36 300.092C1221.74 300.092 1220.14 299.412 1220.14 298.252C1220.14 297.092 1221.74 296.412 1224.36 296.412C1226.98 296.412 1228.58 297.092 1228.58 298.252C1228.58 299.412 1226.98 300.092 1224.36 300.092ZM1224.36 295.152C1220.74 295.152 1218.52 296.272 1218.52 298.252C1218.52 300.212 1220.74 301.352 1224.36 301.352C1227.96 301.352 1230.2 300.212 1230.2 298.252C1230.2 296.272 1227.96 295.152 1224.36 295.152ZM1229.98 288.412V283.432H1228.34V294.972H1229.98V289.772H1232.62V288.412H1229.98ZM1244.82 291.872C1242.24 290.992 1240.48 288.752 1240.48 286.332V284.352H1238.84V286.192C1238.84 288.932 1237.1 291.372 1234.38 292.352L1235.24 293.652C1237.34 292.852 1238.94 291.212 1239.68 289.112C1240.48 290.952 1242.02 292.432 1243.96 293.152L1244.82 291.872ZM1242.68 300.072C1240.02 300.072 1238.4 299.332 1238.4 298.092C1238.4 296.832 1240.02 296.092 1242.68 296.092C1245.32 296.092 1246.94 296.832 1246.94 298.092C1246.94 299.332 1245.32 300.072 1242.68 300.072ZM1242.68 294.812C1239.02 294.812 1236.76 295.992 1236.76 298.092C1236.76 300.172 1239.02 301.352 1242.68 301.352C1246.32 301.352 1248.58 300.172 1248.58 298.092C1248.58 295.992 1246.32 294.812 1242.68 294.812ZM1248.38 288.072V283.452H1246.74V294.312H1248.38V289.432H1251.04V288.072H1248.38ZM1272.54 283.452H1270.9V296.692H1272.54V283.452ZM1268.86 292.912C1266.2 292.092 1264.32 289.972 1264.32 287.612V287.152H1268.38V285.832H1264.34V283.512H1262.7V285.832H1258.62V287.152H1262.7V287.612C1262.7 290.112 1260.88 292.372 1258.2 293.252L1259 294.532C1261.12 293.812 1262.76 292.252 1263.54 290.272C1264.36 292.112 1266 293.532 1268.08 294.192L1268.86 292.912ZM1262.64 299.632V295.472H1261V300.972H1273.08V299.632H1262.64ZM1285.8 287.452V288.772H1289.34V292.712H1290.98V283.452H1289.34V287.452H1285.8ZM1286.74 291.212C1284.18 290.392 1282.42 288.332 1282.42 286.172V285.692H1286.38V284.372H1276.78V285.692H1280.76V286.172C1280.76 288.492 1278.9 290.732 1276.28 291.632L1277.1 292.912C1279.2 292.192 1280.84 290.612 1281.6 288.692C1282.38 290.452 1283.94 291.852 1285.96 292.492L1286.74 291.212ZM1281.08 299.872V297.912H1290.98V293.612H1279.42V294.892H1289.36V296.672H1279.46V301.172H1291.66V299.872H1281.08ZM1305.25 285.632H1300.77V283.432H1299.13V285.632H1294.67V286.952H1305.25V285.632ZM1297.23 291.272C1297.23 290.032 1298.33 289.232 1299.95 289.232C1301.57 289.232 1302.69 290.032 1302.69 291.272C1302.69 292.532 1301.57 293.332 1299.95 293.332C1298.33 293.332 1297.23 292.532 1297.23 291.272ZM1304.25 291.272C1304.25 289.272 1302.49 287.952 1299.95 287.952C1297.41 287.952 1295.67 289.272 1295.67 291.272C1295.67 293.292 1297.41 294.612 1299.95 294.612C1302.49 294.612 1304.25 293.292 1304.25 291.272ZM1299.01 295.832H1297.37V300.972H1309.33V299.632H1299.01V295.832ZM1308.53 289.352V283.432H1306.89V296.892H1308.53V290.732H1311.17V289.352H1308.53ZM1320.23 286.952H1325.29V285.612H1318.61V296.952H1319.79C1322.47 296.952 1324.29 296.872 1326.43 296.412L1326.29 295.052C1324.33 295.472 1322.63 295.572 1320.23 295.592V286.952ZM1331.63 283.432V290.632H1329.09V283.832H1327.55V300.472H1329.09V291.972H1331.63V301.372H1333.21V283.432H1331.63ZM1344.45 285.472C1347.19 285.472 1349.05 286.492 1349.05 288.072C1349.05 289.672 1347.19 290.692 1344.45 290.692C1341.73 290.692 1339.87 289.672 1339.87 288.072C1339.87 286.492 1341.73 285.472 1344.45 285.472ZM1344.45 292.012C1348.19 292.012 1350.73 290.492 1350.73 288.072C1350.73 285.672 1348.19 284.152 1344.45 284.152C1340.73 284.152 1338.19 285.672 1338.19 288.072C1338.19 290.492 1340.73 292.012 1344.45 292.012ZM1352.61 293.712H1336.37V295.072H1343.63V301.392H1345.27V295.072H1352.61V293.712ZM1360.51 284.572V285.912H1367.03C1366.71 288.952 1364.09 291.312 1359.71 292.492L1360.35 293.792C1365.63 292.352 1368.79 289.132 1368.79 284.572H1360.51ZM1363.97 295.772H1372.03V299.792H1363.97V295.772ZM1362.35 301.112H1373.65V294.452H1362.35V301.112ZM1376.31 287.812H1373.65V283.412H1372.01V293.612H1373.65V289.172H1376.31V287.812ZM1384.15 284.992H1382.53V288.212C1382.53 291.472 1380.49 294.912 1377.91 296.232L1378.89 297.552C1380.91 296.472 1382.57 294.232 1383.35 291.612C1384.17 294.072 1385.79 296.172 1387.69 297.192L1388.71 295.892C1386.19 294.632 1384.15 291.372 1384.15 288.212V284.992ZM1394.89 290.712H1391.93V283.452H1390.29V301.372H1391.93V292.072H1394.89V290.712ZM1410.91 292.032H1400.21V286.432H1410.73V285.072H1398.59V293.372H1410.91V292.032ZM1396.51 297.592V298.952H1412.79V297.592H1396.51ZM1417.21 291.472H1423.39V285.052H1415.55V286.372H1421.77V290.132H1415.59V297.212H1416.95C1419.75 297.212 1422.05 297.112 1424.87 296.672L1424.73 295.312C1422.05 295.732 1419.85 295.852 1417.21 295.852V291.472ZM1428.05 283.412V287.512H1424.51V288.852H1428.05V292.432H1424.39V293.772H1428.05V301.392H1429.69V283.412H1428.05ZM1438.95 293.492C1439.69 293.672 1440.55 293.772 1441.43 293.772C1442.33 293.772 1443.19 293.672 1443.95 293.492V297.712H1438.95V293.492ZM1441.43 285.852C1444.31 285.852 1446.39 287.172 1446.39 289.172C1446.39 291.172 1444.31 292.492 1441.43 292.492C1438.55 292.492 1436.49 291.172 1436.49 289.172C1436.49 287.172 1438.55 285.852 1441.43 285.852ZM1445.59 297.712V292.852C1447.07 292.072 1447.95 290.792 1447.95 289.172C1447.95 286.372 1445.25 284.572 1441.43 284.572C1437.63 284.572 1434.91 286.372 1434.91 289.172C1434.91 290.792 1435.81 292.092 1437.31 292.872V297.712H1433.31V299.072H1449.61V297.712H1445.59ZM1459.01 295.878H1457.38L1457.26 285.673H1459.15L1459.01 295.878ZM1457.19 298.984C1457.19 298.691 1457.28 298.446 1457.45 298.251C1457.63 298.049 1457.9 297.948 1458.25 297.948C1458.6 297.948 1458.87 298.049 1459.05 298.251C1459.24 298.446 1459.33 298.691 1459.33 298.984C1459.33 299.276 1459.24 299.521 1459.05 299.716C1458.87 299.905 1458.6 299.999 1458.25 299.999C1457.9 299.999 1457.63 299.905 1457.45 299.716C1457.28 299.521 1457.19 299.276 1457.19 298.984ZM1464.17 295.878H1462.54L1462.41 285.673H1464.31L1464.17 295.878ZM1462.34 298.984C1462.34 298.691 1462.43 298.446 1462.61 298.251C1462.79 298.049 1463.06 297.948 1463.41 297.948C1463.76 297.948 1464.03 298.049 1464.21 298.251C1464.39 298.446 1464.48 298.691 1464.48 298.984C1464.48 299.276 1464.39 299.521 1464.21 299.716C1464.03 299.905 1463.76 299.999 1463.41 299.999C1463.06 299.999 1462.79 299.905 1462.61 299.716C1462.43 299.521 1462.34 299.276 1462.34 298.984ZM1226.2 314.392C1223.94 314.852 1221.98 314.972 1218.66 314.972V309.012H1225.2V307.672H1217.04V316.312H1218.4C1221.96 316.312 1223.98 316.212 1226.38 315.712L1226.2 314.392ZM1218.86 319.432H1229.18V324.392H1230.84V318.092H1218.86V319.432ZM1229.18 306.432V311.072H1224.16V312.412H1229.18V317.172H1230.84V306.432H1229.18ZM1246.94 312.872H1238.22V310.552H1246.94V312.872ZM1248.56 306.992H1246.94V309.292H1238.22V306.992H1236.6V314.172H1248.56V306.992ZM1238.12 319.092H1236.5V323.972H1248.9V322.632H1238.12V319.092ZM1234.42 315.912V317.232H1241.88V320.712H1243.52V317.232H1250.72V315.912H1234.42ZM1256.92 318.912C1255.48 318.912 1254.58 317.092 1254.58 314.152C1254.58 311.272 1255.48 309.452 1256.92 309.452C1258.32 309.452 1259.24 311.272 1259.24 314.152C1259.24 317.092 1258.32 318.912 1256.92 318.912ZM1262.98 313.412H1260.72C1260.52 310.032 1259.08 307.932 1256.92 307.932C1254.58 307.932 1253.08 310.332 1253.08 314.152C1253.08 318.032 1254.58 320.432 1256.92 320.432C1259.12 320.432 1260.58 318.272 1260.72 314.752H1262.98V323.492H1264.54V306.832H1262.98V313.412ZM1266.54 306.432V324.372H1268.1V306.432H1266.54ZM1283.42 314.432H1278.56V309.112H1283.42V314.432ZM1285.04 307.812H1276.96V315.752H1285.04V307.812ZM1285.54 317.472H1283.92V318.032C1283.92 320.572 1281.12 322.472 1277.92 323.012L1278.58 324.292C1281.24 323.792 1283.66 322.452 1284.74 320.412C1285.8 322.452 1288.2 323.792 1290.86 324.292L1291.52 323.012C1288.32 322.472 1285.54 320.572 1285.54 318.032V317.472ZM1290.14 311.332V306.432H1288.5V318.352H1290.14V312.692H1292.78V311.332H1290.14ZM1309.33 306.452H1307.69V316.692H1309.33V306.452ZM1299.69 308.852C1301.47 308.852 1302.79 310.032 1302.79 311.672C1302.79 313.332 1301.47 314.492 1299.69 314.492C1297.91 314.492 1296.63 313.332 1296.63 311.672C1296.63 310.032 1297.91 308.852 1299.69 308.852ZM1299.69 315.852C1302.41 315.852 1304.39 314.152 1304.39 311.672C1304.39 309.192 1302.41 307.492 1299.69 307.492C1296.99 307.492 1295.03 309.192 1295.03 311.672C1295.03 314.152 1296.99 315.852 1299.69 315.852ZM1307.33 317.472H1305.73V318.432C1305.73 319.832 1304.87 321.632 1303.15 322.692C1301.49 321.712 1300.67 320.012 1300.67 318.432V317.472H1299.09V318.432C1299.09 320.152 1297.75 322.092 1295.49 322.892L1296.31 324.132C1297.99 323.492 1299.21 322.252 1299.85 320.812C1300.39 322.312 1301.47 323.612 1303.19 324.292C1304.85 323.572 1305.95 322.212 1306.51 320.752C1307.11 322.252 1308.35 323.492 1310.11 324.132L1310.93 322.892C1308.65 322.132 1307.33 320.292 1307.33 318.432V317.472ZM1325.67 310.012C1325.67 312.172 1325.67 314.692 1324.99 318.132L1326.63 318.312C1327.31 314.692 1327.31 312.232 1327.31 310.012V308.232H1314.73V309.572H1325.67V310.012ZM1320.97 320.512V314.092H1319.33V320.512H1313.03V321.852H1329.25V320.512H1320.97ZM1345.61 311.972V313.312H1349.49V319.692H1351.15V306.452H1349.49V311.972H1345.61ZM1337.55 307.832V309.172H1343.93C1343.57 312.392 1340.75 314.952 1336.65 316.312L1337.35 317.632C1342.43 315.952 1345.69 312.452 1345.69 307.832H1337.55ZM1341.45 322.632V318.352H1339.81V323.972H1351.61V322.632H1341.45ZM1355.57 307.772V309.092H1362.07C1361.77 312.192 1359.07 314.632 1354.81 315.892L1355.47 317.212C1360.67 315.672 1363.85 312.332 1363.85 307.772H1355.57ZM1363.07 323.052C1360.49 323.052 1358.85 322.232 1358.85 320.872C1358.85 319.492 1360.49 318.672 1363.07 318.672C1365.65 318.672 1367.29 319.492 1367.29 320.872C1367.29 322.232 1365.65 323.052 1363.07 323.052ZM1363.07 317.392C1359.53 317.392 1357.23 318.692 1357.23 320.872C1357.23 323.032 1359.53 324.352 1363.07 324.352C1366.61 324.352 1368.91 323.032 1368.91 320.872C1368.91 318.692 1366.61 317.392 1363.07 317.392ZM1368.69 311.072V306.432H1367.05V317.152H1368.69V312.432H1371.35V311.072H1368.69ZM1383.81 308.632H1379.33V306.432H1377.69V308.632H1373.23V309.952H1383.81V308.632ZM1375.79 314.272C1375.79 313.032 1376.89 312.232 1378.51 312.232C1380.13 312.232 1381.25 313.032 1381.25 314.272C1381.25 315.532 1380.13 316.332 1378.51 316.332C1376.89 316.332 1375.79 315.532 1375.79 314.272ZM1382.81 314.272C1382.81 312.272 1381.05 310.952 1378.51 310.952C1375.97 310.952 1374.23 312.272 1374.23 314.272C1374.23 316.292 1375.97 317.612 1378.51 317.612C1381.05 317.612 1382.81 316.292 1382.81 314.272ZM1377.57 318.832H1375.93V323.972H1387.89V322.632H1377.57V318.832ZM1387.09 312.352V306.432H1385.45V319.892H1387.09V313.732H1389.73V312.352H1387.09ZM1404.63 306.832C1400.75 306.832 1398.33 308.092 1398.33 310.232C1398.33 312.352 1400.75 313.612 1404.63 313.612C1408.51 313.612 1410.93 312.352 1410.93 310.232C1410.93 308.092 1408.51 306.832 1404.63 306.832ZM1404.63 308.132C1407.47 308.132 1409.25 308.912 1409.25 310.232C1409.25 311.552 1407.47 312.332 1404.63 312.332C1401.79 312.332 1400.01 311.552 1400.01 310.232C1400.01 308.912 1401.79 308.132 1404.63 308.132ZM1398.53 318.232V324.132H1410.77V318.232H1398.53ZM1409.17 319.532V322.812H1400.13V319.532H1409.17ZM1396.53 315.152V316.472H1412.75V315.152H1396.53ZM1425.75 314.872C1423.09 313.952 1421.25 311.612 1421.25 309.032V307.272H1419.61V309.032C1419.61 311.712 1417.79 314.212 1415.09 315.192L1415.93 316.492C1418.03 315.692 1419.67 314.032 1420.45 311.912C1421.25 313.892 1422.87 315.432 1424.93 316.172L1425.75 314.872ZM1417.65 319.472H1428.01V324.392H1429.65V318.152H1417.65V319.472ZM1428.01 306.452V317.232H1429.65V306.452H1428.01ZM1441.07 319.332H1451.41V324.392H1453.07V318.012H1441.07V319.332ZM1445.69 314.492H1440.73V309.092H1445.69V314.492ZM1451.41 306.452V310.932H1447.29V307.772H1439.11V315.792H1447.29V312.272H1451.41V317.012H1453.07V306.452H1451.41ZM1469.35 310.012C1469.35 312.172 1469.35 314.692 1468.67 318.132L1470.31 318.312C1470.99 314.692 1470.99 312.232 1470.99 310.012V308.232H1458.41V309.572H1469.35V310.012ZM1464.65 320.512V314.092H1463.01V320.512H1456.71V321.852H1472.93V320.512H1464.65ZM1494.76 306.452H1493.12V316.692H1494.76V306.452ZM1485.12 308.852C1486.9 308.852 1488.22 310.032 1488.22 311.672C1488.22 313.332 1486.9 314.492 1485.12 314.492C1483.34 314.492 1482.06 313.332 1482.06 311.672C1482.06 310.032 1483.34 308.852 1485.12 308.852ZM1485.12 315.852C1487.84 315.852 1489.82 314.152 1489.82 311.672C1489.82 309.192 1487.84 307.492 1485.12 307.492C1482.42 307.492 1480.46 309.192 1480.46 311.672C1480.46 314.152 1482.42 315.852 1485.12 315.852ZM1492.76 317.472H1491.16V318.432C1491.16 319.832 1490.3 321.632 1488.58 322.692C1486.92 321.712 1486.1 320.012 1486.1 318.432V317.472H1484.52V318.432C1484.52 320.152 1483.18 322.092 1480.92 322.892L1481.74 324.132C1483.42 323.492 1484.64 322.252 1485.28 320.812C1485.82 322.312 1486.9 323.612 1488.62 324.292C1490.28 323.572 1491.38 322.212 1491.94 320.752C1492.54 322.252 1493.78 323.492 1495.54 324.132L1496.36 322.892C1494.08 322.132 1492.76 320.292 1492.76 318.432V317.472ZM1503.24 318.872C1501.52 318.872 1500.32 316.992 1500.32 314.072C1500.32 311.172 1501.52 309.292 1503.24 309.292C1504.94 309.292 1506.14 311.172 1506.14 314.072C1506.14 316.992 1504.94 318.872 1503.24 318.872ZM1511.58 306.432V313.272H1507.68C1507.42 309.912 1505.66 307.812 1503.24 307.812C1500.62 307.812 1498.76 310.252 1498.76 314.072C1498.76 317.892 1500.62 320.332 1503.24 320.332C1505.74 320.332 1507.52 318.132 1507.68 314.612H1511.58V324.412H1513.22V306.432H1511.58ZM1522.46 316.492C1523.2 316.672 1524.06 316.772 1524.94 316.772C1525.84 316.772 1526.7 316.672 1527.46 316.492V320.712H1522.46V316.492ZM1524.94 308.852C1527.82 308.852 1529.9 310.172 1529.9 312.172C1529.9 314.172 1527.82 315.492 1524.94 315.492C1522.06 315.492 1520 314.172 1520 312.172C1520 310.172 1522.06 308.852 1524.94 308.852ZM1529.1 320.712V315.852C1530.58 315.072 1531.46 313.792 1531.46 312.172C1531.46 309.372 1528.76 307.572 1524.94 307.572C1521.14 307.572 1518.42 309.372 1518.42 312.172C1518.42 313.792 1519.32 315.092 1520.82 315.872V320.712H1516.82V322.072H1533.12V320.712H1529.1ZM1535.59 321.944C1535.59 321.632 1535.68 321.372 1535.86 321.163C1536.05 320.955 1536.33 320.851 1536.7 320.851C1537.07 320.851 1537.35 320.955 1537.54 321.163C1537.73 321.372 1537.83 321.632 1537.83 321.944C1537.83 322.244 1537.73 322.495 1537.54 322.696C1537.35 322.898 1537.07 322.999 1536.7 322.999C1536.33 322.999 1536.05 322.898 1535.86 322.696C1535.68 322.495 1535.59 322.244 1535.59 321.944ZM1222.08 330.992H1220.46V334.212C1220.46 337.472 1218.42 340.912 1215.84 342.232L1216.82 343.552C1218.84 342.472 1220.5 340.232 1221.28 337.612C1222.1 340.072 1223.72 342.172 1225.62 343.192L1226.64 341.892C1224.12 340.632 1222.08 337.372 1222.08 334.212V330.992ZM1232.82 336.712H1229.86V329.452H1228.22V347.372H1229.86V338.072H1232.82V336.712ZM1244.86 338.112C1242.22 337.232 1240.52 335.132 1240.52 332.792V332.092H1244.48V330.772H1234.86V332.092H1238.88V332.792C1238.88 335.372 1237.08 337.692 1234.38 338.632L1235.22 339.932C1237.36 339.172 1238.98 337.572 1239.74 335.532C1240.5 337.312 1242.04 338.732 1244.08 339.392L1244.86 338.112ZM1242.68 346.052C1240 346.052 1238.4 345.312 1238.4 344.032C1238.4 342.772 1240 342.032 1242.68 342.032C1245.32 342.032 1246.94 342.772 1246.94 344.032C1246.94 345.312 1245.32 346.052 1242.68 346.052ZM1242.68 340.732C1239 340.732 1236.76 341.952 1236.76 344.032C1236.76 346.132 1239 347.352 1242.68 347.352C1246.32 347.352 1248.58 346.132 1248.58 344.032C1248.58 341.952 1246.32 340.732 1242.68 340.732ZM1248.38 333.972V329.452H1246.74V340.272H1248.38V335.352H1251.04V333.972H1248.38ZM1263.98 336.052C1261.16 336.632 1258.54 336.852 1255.6 336.852V330.472H1253.96V338.232H1255.42C1258.52 338.232 1261.22 338.012 1264.2 337.412L1263.98 336.052ZM1257.56 341.752H1265.96V345.792H1257.56V341.752ZM1255.96 347.112H1267.56V340.452H1255.96V347.112ZM1265.92 329.412V339.592H1267.56V329.412H1265.92ZM1279.38 335.312C1279.38 333.252 1281.48 331.912 1284.34 331.912C1287.2 331.912 1289.28 333.252 1289.28 335.312C1289.28 337.372 1287.2 338.712 1284.34 338.712C1281.48 338.712 1279.38 337.372 1279.38 335.312ZM1285.16 343.712V339.972C1288.5 339.732 1290.84 337.952 1290.84 335.312C1290.84 332.452 1288.12 330.612 1284.34 330.612C1280.54 330.612 1277.8 332.452 1277.8 335.312C1277.8 337.952 1280.16 339.732 1283.5 339.972V343.712H1276.2V345.072H1292.5V343.712H1285.16ZM1308.97 333.712H1298.41V329.692H1296.79V335.032H1308.97V333.712ZM1298.29 343.952H1308.81V339.732H1296.61V341.012H1307.17V342.732H1296.65V347.132H1309.41V345.852H1298.29V343.952ZM1294.59 336.792V338.132H1310.87V336.792H1294.59ZM1321.95 343.752V339.152H1327.41V337.832H1316.71V332.212H1327.23V330.872H1315.07V339.152H1320.29V343.752H1312.99V345.112H1329.29V343.752H1321.95ZM1347.19 331.612H1342.67V329.452H1341.03V331.612H1336.47V332.912H1347.19V331.612ZM1339.17 337.292C1339.17 336.052 1340.25 335.232 1341.85 335.232C1343.45 335.232 1344.53 336.052 1344.53 337.292C1344.53 338.532 1343.45 339.332 1341.85 339.332C1340.25 339.332 1339.17 338.532 1339.17 337.292ZM1342.67 340.572C1344.73 340.312 1346.09 339.072 1346.09 337.292C1346.09 335.272 1344.35 333.972 1341.85 333.972C1339.35 333.972 1337.61 335.272 1337.61 337.292C1337.61 339.072 1338.97 340.312 1341.03 340.572V342.532C1339.29 342.592 1337.61 342.592 1336.17 342.592L1336.39 343.972C1339.53 343.972 1343.75 343.932 1347.59 343.252L1347.49 342.032C1345.95 342.272 1344.29 342.392 1342.67 342.472V340.572ZM1352.99 337.052H1350.19V329.432H1348.55V347.372H1350.19V338.432H1352.99V337.052ZM1367.81 329.432V347.412H1369.45V329.432H1367.81ZM1359.99 330.812C1357.33 330.812 1355.43 333.252 1355.43 337.072C1355.43 340.892 1357.33 343.332 1359.99 343.332C1362.65 343.332 1364.55 340.892 1364.55 337.072C1364.55 333.252 1362.65 330.812 1359.99 330.812ZM1359.99 332.292C1361.73 332.292 1362.97 334.172 1362.97 337.072C1362.97 339.992 1361.73 341.872 1359.99 341.872C1358.23 341.872 1356.99 339.992 1356.99 337.072C1356.99 334.172 1358.23 332.292 1359.99 332.292ZM1387.89 329.452H1386.25V340.552H1387.89V329.452ZM1384.19 337.452C1381.69 337.872 1379.57 337.952 1375.83 337.952V335.612H1382.25V334.312H1375.83V332.072H1382.75V330.752H1374.19V339.272H1375.65C1379.57 339.272 1381.75 339.192 1384.37 338.752L1384.19 337.452ZM1381.93 346.072C1379.21 346.072 1377.55 345.332 1377.55 344.092C1377.55 342.812 1379.21 342.092 1381.93 342.092C1384.67 342.092 1386.33 342.812 1386.33 344.092C1386.33 345.332 1384.67 346.072 1381.93 346.072ZM1381.93 340.812C1378.21 340.812 1375.93 341.992 1375.93 344.092C1375.93 346.172 1378.21 347.352 1381.93 347.352C1385.67 347.352 1387.95 346.172 1387.95 344.092C1387.95 341.992 1385.67 340.812 1381.93 340.812ZM1400.97 341.852C1399.57 341.852 1398.59 340.712 1398.59 339.112C1398.59 337.552 1399.57 336.412 1400.97 336.412C1402.35 336.412 1403.35 337.552 1403.35 339.112C1403.35 340.712 1402.35 341.852 1400.97 341.852ZM1400.97 335.032C1398.75 335.032 1397.13 336.712 1397.13 339.112C1397.13 341.552 1398.75 343.212 1400.97 343.212C1403.19 343.212 1404.81 341.552 1404.81 339.112C1404.81 336.712 1403.19 335.032 1400.97 335.032ZM1401.77 329.952H1400.15V332.492H1396.51V333.832H1405.41V332.492H1401.77V329.952ZM1410.15 329.412V336.992H1407.85V329.832H1406.31V346.492H1407.85V338.332H1410.15V347.352H1411.73V329.412H1410.15ZM1420.55 339.492C1421.29 339.672 1422.15 339.772 1423.03 339.772C1423.93 339.772 1424.79 339.672 1425.55 339.492V343.712H1420.55V339.492ZM1423.03 331.852C1425.91 331.852 1427.99 333.172 1427.99 335.172C1427.99 337.172 1425.91 338.492 1423.03 338.492C1420.15 338.492 1418.09 337.172 1418.09 335.172C1418.09 333.172 1420.15 331.852 1423.03 331.852ZM1427.19 343.712V338.852C1428.67 338.072 1429.55 336.792 1429.55 335.172C1429.55 332.372 1426.85 330.572 1423.03 330.572C1419.23 330.572 1416.51 332.372 1416.51 335.172C1416.51 336.792 1417.41 338.092 1418.91 338.872V343.712H1414.91V345.072H1431.21V343.712H1427.19ZM1435.65 341.878H1434.02L1433.9 331.673H1435.79L1435.65 341.878ZM1433.83 344.984C1433.83 344.691 1433.92 344.446 1434.09 344.251C1434.27 344.049 1434.54 343.948 1434.89 343.948C1435.24 343.948 1435.51 344.049 1435.69 344.251C1435.88 344.446 1435.97 344.691 1435.97 344.984C1435.97 345.276 1435.88 345.521 1435.69 345.716C1435.51 345.905 1435.24 345.999 1434.89 345.999C1434.54 345.999 1434.27 345.905 1434.09 345.716C1433.92 345.521 1433.83 345.276 1433.83 344.984ZM1440.81 341.878H1439.18L1439.05 331.673H1440.95L1440.81 341.878ZM1438.98 344.984C1438.98 344.691 1439.07 344.446 1439.25 344.251C1439.43 344.049 1439.7 343.948 1440.05 343.948C1440.4 343.948 1440.67 344.049 1440.85 344.251C1441.03 344.446 1441.12 344.691 1441.12 344.984C1441.12 345.276 1441.03 345.521 1440.85 345.716C1440.67 345.905 1440.4 345.999 1440.05 345.999C1439.7 345.999 1439.43 345.905 1439.25 345.716C1439.07 345.521 1438.98 345.276 1438.98 344.984Z" fill="black"/>
<path d="M1574.9 291.7C1575.14 291.7 1575.37 291.795 1575.54 291.964C1575.71 292.132 1575.8 292.361 1575.8 292.6V294.4C1575.8 296.31 1576.56 298.141 1577.91 299.491C1579.26 300.841 1581.09 301.6 1583 301.6C1584.91 301.6 1586.74 300.841 1588.09 299.491C1589.44 298.141 1590.2 296.31 1590.2 294.4V292.6C1590.2 292.361 1590.29 292.132 1590.46 291.964C1590.63 291.795 1590.86 291.7 1591.1 291.7C1591.34 291.7 1591.57 291.795 1591.74 291.964C1591.91 292.132 1592 292.361 1592 292.6V294.4C1592 296.631 1591.17 298.783 1589.67 300.437C1588.18 302.092 1586.12 303.132 1583.9 303.355V307H1589.3C1589.54 307 1589.77 307.095 1589.94 307.264C1590.11 307.432 1590.2 307.661 1590.2 307.9C1590.2 308.139 1590.11 308.368 1589.94 308.536C1589.77 308.705 1589.54 308.8 1589.3 308.8H1576.7C1576.46 308.8 1576.23 308.705 1576.06 308.536C1575.89 308.368 1575.8 308.139 1575.8 307.9C1575.8 307.661 1575.89 307.432 1576.06 307.264C1576.23 307.095 1576.46 307 1576.7 307H1582.1V303.355C1579.88 303.132 1577.82 302.092 1576.33 300.437C1574.83 298.783 1574 296.631 1574 294.4V292.6C1574 292.361 1574.09 292.132 1574.26 291.964C1574.43 291.795 1574.66 291.7 1574.9 291.7Z" fill="black"/>
<path d="M1586.6 294.4C1586.6 295.355 1586.22 296.27 1585.55 296.946C1584.87 297.621 1583.95 298 1583 298C1582.05 298 1581.13 297.621 1580.45 296.946C1579.78 296.27 1579.4 295.355 1579.4 294.4V285.4C1579.4 284.445 1579.78 283.53 1580.45 282.854C1581.13 282.179 1582.05 281.8 1583 281.8C1583.95 281.8 1584.87 282.179 1585.55 282.854C1586.22 283.53 1586.6 284.445 1586.6 285.4V294.4ZM1583 280C1581.57 280 1580.19 280.569 1579.18 281.582C1578.17 282.594 1577.6 283.968 1577.6 285.4V294.4C1577.6 295.832 1578.17 297.206 1579.18 298.218C1580.19 299.231 1581.57 299.8 1583 299.8C1584.43 299.8 1585.81 299.231 1586.82 298.218C1587.83 297.206 1588.4 295.832 1588.4 294.4V285.4C1588.4 283.968 1587.83 282.594 1586.82 281.582C1585.81 280.569 1584.43 280 1583 280V280Z" fill="black"/>
<path d="M1574.9 291.7C1575.14 291.7 1575.37 291.795 1575.54 291.964C1575.71 292.132 1575.8 292.361 1575.8 292.6V294.4C1575.8 296.31 1576.56 298.141 1577.91 299.491C1579.26 300.841 1581.09 301.6 1583 301.6C1584.91 301.6 1586.74 300.841 1588.09 299.491C1589.44 298.141 1590.2 296.31 1590.2 294.4V292.6C1590.2 292.361 1590.29 292.132 1590.46 291.964C1590.63 291.795 1590.86 291.7 1591.1 291.7C1591.34 291.7 1591.57 291.795 1591.74 291.964C1591.91 292.132 1592 292.361 1592 292.6V294.4C1592 296.631 1591.17 298.783 1589.67 300.437C1588.18 302.092 1586.12 303.132 1583.9 303.355V307H1589.3C1589.54 307 1589.77 307.095 1589.94 307.264C1590.11 307.432 1590.2 307.661 1590.2 307.9C1590.2 308.139 1590.11 308.368 1589.94 308.536C1589.77 308.705 1589.54 308.8 1589.3 308.8H1576.7C1576.46 308.8 1576.23 308.705 1576.06 308.536C1575.89 308.368 1575.8 308.139 1575.8 307.9C1575.8 307.661 1575.89 307.432 1576.06 307.264C1576.23 307.095 1576.46 307 1576.7 307H1582.1V303.355C1579.88 303.132 1577.82 302.092 1576.33 300.437C1574.83 298.783 1574 296.631 1574 294.4V292.6C1574 292.361 1574.09 292.132 1574.26 291.964C1574.43 291.795 1574.66 291.7 1574.9 291.7Z" fill="#FF5252"/>
<path d="M1586.6 294.4C1586.6 295.355 1586.22 296.27 1585.55 296.946C1584.87 297.621 1583.95 298 1583 298C1582.05 298 1581.13 297.621 1580.45 296.946C1579.78 296.27 1579.4 295.355 1579.4 294.4V285.4C1579.4 284.445 1579.78 283.53 1580.45 282.854C1581.13 282.179 1582.05 281.8 1583 281.8C1583.95 281.8 1584.87 282.179 1585.55 282.854C1586.22 283.53 1586.6 284.445 1586.6 285.4V294.4ZM1583 280C1581.57 280 1580.19 280.569 1579.18 281.582C1578.17 282.594 1577.6 283.968 1577.6 285.4V294.4C1577.6 295.832 1578.17 297.206 1579.18 298.218C1580.19 299.231 1581.57 299.8 1583 299.8C1584.43 299.8 1585.81 299.231 1586.82 298.218C1587.83 297.206 1588.4 295.832 1588.4 294.4V285.4C1588.4 283.968 1587.83 282.594 1586.82 281.582C1585.81 280.569 1584.43 280 1583 280V280Z" fill="#FF5252"/>
<g filter="url(#filter3_d_182_39)">
<rect x="389" y="337" width="140" height="50" rx="25" fill="white"/>
</g>
<path d="M432.678 356.59H431.22V359.488C431.22 362.548 429.258 365.644 426.882 366.778L427.782 367.984C429.672 367.012 431.22 364.996 431.958 362.566C432.732 364.87 434.28 366.778 436.116 367.678L436.998 366.49C434.604 365.41 432.678 362.44 432.678 359.488V356.59ZM438.69 355.186V371.368H440.166V355.186H438.69ZM452.891 363.088C450.515 362.278 448.967 360.28 448.967 358.138V357.508H452.531V356.32H443.873V357.508H447.491V358.156C447.491 360.46 445.871 362.548 443.441 363.394L444.215 364.564C446.105 363.862 447.563 362.44 448.247 360.64C448.949 362.296 450.335 363.61 452.135 364.24L452.891 363.088ZM445.529 366.976H454.565V371.35H456.041V365.788H445.529V366.976ZM458.435 359.434H456.041V355.204H454.565V364.924H456.041V360.658H458.435V359.434ZM464.805 366.508C463.347 366.508 462.285 365.464 462.285 364.024C462.285 362.566 463.347 361.522 464.805 361.522C466.281 361.522 467.343 362.566 467.343 364.024C467.343 365.464 466.281 366.508 464.805 366.508ZM464.805 360.298C462.537 360.298 460.899 361.846 460.899 364.024C460.899 366.22 462.537 367.732 464.805 367.732C467.109 367.732 468.747 366.22 468.747 364.024C468.747 361.846 467.109 360.298 464.805 360.298ZM465.525 355.384H464.049V357.778H459.981V358.966H469.503V357.778H465.525V355.384ZM475.155 361.828H472.509V355.204H471.033V371.332H472.509V363.07H475.155V361.828ZM477.584 356.932V358.12H483.65C483.344 361.954 481.184 365.05 476.846 367.12L477.638 368.326C483.002 365.698 485.144 361.594 485.144 356.932H477.584ZM488.402 355.186V371.332H489.878V355.186H488.402Z" fill="#545454"/>
<defs>
<filter id="filter0_d_182_39" x="1192" y="184" width="352" height="70" filterUnits="userSpaceOnUse" color-interpolation-filters="sRGB">
<feFlood flood-opacity="0" result="BackgroundImageFix"/>
<feColorMatrix in="SourceAlpha" type="matrix" values="0 0 0 0 0 0 0 0 0 0 0 0 0 0 0 0 0 0 127 0" result="hardAlpha"/>
<feOffset dy="4"/>
<feGaussianBlur stdDeviation="5"/>
<feComposite in2="hardAlpha" operator="out"/>
<feColorMatrix type="matrix" values="0 0 0 0 0.458333 0 0 0 0 0.458333 0 0 0 0 0.458333 0 0 0 0.25 0"/>
<feBlend mode="normal" in2="BackgroundImageFix" result="effect1_dropShadow_182_39"/>
<feBlend mode="normal" in="SourceGraphic" in2="effect1_dropShadow_182_39" result="shape"/>
</filter>
<filter id="filter1_d_182_39" x="1317" y="396" width="352" height="70" filterUnits="userSpaceOnUse" color-interpolation-filters="sRGB">
<feFlood flood-opacity="0" result="BackgroundImageFix"/>
<feColorMatrix in="SourceAlpha" type="matrix" values="0 0 0 0 0 0 0 0 0 0 0 0 0 0 0 0 0 0 127 0" result="hardAlpha"/>
<feOffset dy="4"/>
<feGaussianBlur stdDeviation="5"/>
<feComposite in2="hardAlpha" operator="out"/>
<feColorMatrix type="matrix" values="0 0 0 0 0.458333 0 0 0 0 0.458333 0 0 0 0 0.458333 0 0 0 0.25 0"/>
<feBlend mode="normal" in2="BackgroundImageFix" result="effect1_dropShadow_182_39"/>
<feBlend mode="normal" in="SourceGraphic" in2="effect1_dropShadow_182_39" result="shape"/>
</filter>
<filter id="filter2_d_182_39" x="1192" y="261" width="419" height="115" filterUnits="userSpaceOnUse" color-interpolation-filters="sRGB">
<feFlood flood-opacity="0" result="BackgroundImageFix"/>
<feColorMatrix in="SourceAlpha" type="matrix" values="0 0 0 0 0 0 0 0 0 0 0 0 0 0 0 0 0 0 127 0" result="hardAlpha"/>
<feOffset dy="4"/>
<feGaussianBlur stdDeviation="5"/>
<feComposite in2="hardAlpha" operator="out"/>
<feColorMatrix type="matrix" values="0 0 0 0 0.458333 0 0 0 0 0.458333 0 0 0 0 0.458333 0 0 0 0.25 0"/>
<feBlend mode="normal" in2="BackgroundImageFix" result="effect1_dropShadow_182_39"/>
<feBlend mode="normal" in="SourceGraphic" in2="effect1_dropShadow_182_39" result="shape"/>
</filter>
<filter id="filter3_d_182_39" x="385" y="337" width="148" height="58" filterUnits="userSpaceOnUse" color-interpolation-filters="sRGB">
<feFlood flood-opacity="0" result="BackgroundImageFix"/>
<feColorMatrix in="SourceAlpha" type="matrix" values="0 0 0 0 0 0 0 0 0 0 0 0 0 0 0 0 0 0 127 0" result="hardAlpha"/>
<feOffset dy="4"/>
<feGaussianBlur stdDeviation="2"/>
<feComposite in2="hardAlpha" operator="out"/>
<feColorMatrix type="matrix" values="0 0 0 0 0.441667 0 0 0 0 0.441667 0 0 0 0 0.441667 0 0 0 0.25 0"/>
<feBlend mode="normal" in2="BackgroundImageFix" result="effect1_dropShadow_182_39"/>
<feBlend mode="normal" in="SourceGraphic" in2="effect1_dropShadow_182_39" result="shape"/>
</filter>
<linearGradient id="paint0_linear_182_39" x1="1930" y1="493" x2="-1.50114e-05" y2="5.87669e-05" gradientUnits="userSpaceOnUse">
<stop offset="0.0260417" stop-color="#6B1AEE"/>
<stop offset="0.510417" stop-color="#22478E" stop-opacity="0.730453"/>
<stop offset="0.828125" stop-color="#00855D" stop-opacity="0.513745"/>
<stop offset="1" stop-color="#CCFFBA" stop-opacity="0.61"/>
</linearGradient>
</defs>
</svg>
