<svg width="25" height="40" viewBox="0 0 25 40" fill="none" xmlns="http://www.w3.org/2000/svg">
    <path d="M1.25 16.25C1.58152 16.25 1.89946 16.3817 2.13388 16.6161C2.3683 16.8505 2.5 17.1685 2.5 17.5V20C2.5 22.6522 3.55357 25.1957 5.42893 27.0711C7.3043 28.9464 9.84784 30 12.5 30C15.1522 30 17.6957 28.9464 19.5711 27.0711C21.4464 25.1957 22.5 22.6522 22.5 20V17.5C22.5 17.1685 22.6317 16.8505 22.8661 16.6161C23.1005 16.3817 23.4185 16.25 23.75 16.25C24.0815 16.25 24.3995 16.3817 24.6339 16.6161C24.8683 16.8505 25 17.1685 25 17.5V20C25 23.0988 23.849 26.0872 21.7703 28.3854C19.6916 30.6835 16.8333 32.1276 13.75 32.4375V37.5H21.25C21.5815 37.5 21.8995 37.6317 22.1339 37.8661C22.3683 38.1005 22.5 38.4185 22.5 38.75C22.5 39.0815 22.3683 39.3995 22.1339 39.6339C21.8995 39.8683 21.5815 40 21.25 40H3.75C3.41848 40 3.10054 39.8683 2.86612 39.6339C2.6317 39.3995 2.5 39.0815 2.5 38.75C2.5 38.4185 2.6317 38.1005 2.86612 37.8661C3.10054 37.6317 3.41848 37.5 3.75 37.5H11.25V32.4375C8.16671 32.1276 5.30844 30.6835 3.2297 28.3854C1.15096 26.0872 -3.89292e-05 23.0988 9.87516e-10 20V17.5C9.87516e-10 17.1685 0.131696 16.8505 0.366117 16.6161C0.600537 16.3817 0.918479 16.25 1.25 16.25Z" fill="black" />
    <path d="M17.5 20C17.5 21.3261 16.9732 22.5979 16.0355 23.5355C15.0979 24.4732 13.8261 25 12.5 25C11.1739 25 9.90215 24.4732 8.96447 23.5355C8.02678 22.5979 7.5 21.3261 7.5 20V7.5C7.5 6.17392 8.02678 4.90215 8.96447 3.96447C9.90215 3.02678 11.1739 2.5 12.5 2.5C13.8261 2.5 15.0979 3.02678 16.0355 3.96447C16.9732 4.90215 17.5 6.17392 17.5 7.5V20ZM12.5 0C10.5109 0 8.60322 0.790176 7.1967 2.1967C5.79018 3.60322 5 5.51088 5 7.5V20C5 21.9891 5.79018 23.8968 7.1967 25.3033C8.60322 26.7098 10.5109 27.5 12.5 27.5C14.4891 27.5 16.3968 26.7098 17.8033 25.3033C19.2098 23.8968 20 21.9891 20 20V7.5C20 5.51088 19.2098 3.60322 17.8033 2.1967C16.3968 0.790176 14.4891 0 12.5 0V0Z" fill="black" />
    <path d="M1.25 16.25C1.58152 16.25 1.89946 16.3817 2.13388 16.6161C2.3683 16.8505 2.5 17.1685 2.5 17.5V20C2.5 22.6522 3.55357 25.1957 5.42893 27.0711C7.3043 28.9464 9.84784 30 12.5 30C15.1522 30 17.6957 28.9464 19.5711 27.0711C21.4464 25.1957 22.5 22.6522 22.5 20V17.5C22.5 17.1685 22.6317 16.8505 22.8661 16.6161C23.1005 16.3817 23.4185 16.25 23.75 16.25C24.0815 16.25 24.3995 16.3817 24.6339 16.6161C24.8683 16.8505 25 17.1685 25 17.5V20C25 23.0988 23.849 26.0872 21.7703 28.3854C19.6916 30.6835 16.8333 32.1276 13.75 32.4375V37.5H21.25C21.5815 37.5 21.8995 37.6317 22.1339 37.8661C22.3683 38.1005 22.5 38.4185 22.5 38.75C22.5 39.0815 22.3683 39.3995 22.1339 39.6339C21.8995 39.8683 21.5815 40 21.25 40H3.75C3.41848 40 3.10054 39.8683 2.86612 39.6339C2.6317 39.3995 2.5 39.0815 2.5 38.75C2.5 38.4185 2.6317 38.1005 2.86612 37.8661C3.10054 37.6317 3.41848 37.5 3.75 37.5H11.25V32.4375C8.16671 32.1276 5.30844 30.6835 3.2297 28.3854C1.15096 26.0872 -3.89292e-05 23.0988 9.87516e-10 20V17.5C9.87516e-10 17.1685 0.131696 16.8505 0.366117 16.6161C0.600537 16.3817 0.918479 16.25 1.25 16.25Z" fill="#FF5252" />
    <path d="M17.5 20C17.5 21.3261 16.9732 22.5979 16.0355 23.5355C15.0979 24.4732 13.8261 25 12.5 25C11.1739 25 9.90215 24.4732 8.96447 23.5355C8.02678 22.5979 7.5 21.3261 7.5 20V7.5C7.5 6.17392 8.02678 4.90215 8.96447 3.96447C9.90215 3.02678 11.1739 2.5 12.5 2.5C13.8261 2.5 15.0979 3.02678 16.0355 3.96447C16.9732 4.90215 17.5 6.17392 17.5 7.5V20ZM12.5 0C10.5109 0 8.60322 0.790176 7.1967 2.1967C5.79018 3.60322 5 5.51088 5 7.5V20C5 21.9891 5.79018 23.8968 7.1967 25.3033C8.60322 26.7098 10.5109 27.5 12.5 27.5C14.4891 27.5 16.3968 26.7098 17.8033 25.3033C19.2098 23.8968 20 21.9891 20 20V7.5C20 5.51088 19.2098 3.60322 17.8033 2.1967C16.3968 0.790176 14.4891 0 12.5 0V0Z" fill="#FF5252" />
</svg>